<?xml version="1.0" encoding="UTF-8"?>
<svg version="1.1" xmlns="http://www.w3.org/2000/svg" width="1024" height="1024">
<!-- <path d="M0 0 C337.92 0 675.84 0 1024 0 C1024 337.92 1024 675.84 1024 1024 C686.08 1024 348.16 1024 0 1024 C0 686.08 0 348.16 0 0 Z " fill="#A020F0" transform="translate(0,0)"/> -->
<path d="M0 0 C0.95479752 -0.00570007 1.90959503 -0.01140015 2.89332581 -0.01727295 C4.89575113 -0.02664121 6.8981913 -0.03322396 8.90063477 -0.03710938 C11.93077791 -0.04684087 14.96024885 -0.07795329 17.99023438 -0.109375 C33.4308676 -0.19443337 47.05303392 0.58179633 58.99609375 11.4765625 C67.61196538 20.41452279 78.83279247 34.53171848 81 47.07421875 C80.76473662 57.37875496 78.25635306 65.73904477 70.65625 73.09765625 C69.59147424 74.07779429 68.5195513 75.05021253 67.44140625 76.015625 C66.58095703 76.79655518 66.58095703 76.79655518 65.703125 77.59326172 C60.45514186 82.32021998 55.05017314 86.82980811 49.50390625 91.203125 C48.52164063 91.98042969 47.539375 92.75773437 46.52734375 93.55859375 C32.56939047 104.45133893 18.02603374 114.34643628 2.97949219 123.66894531 C0.48669566 125.21379081 -2.00110739 126.76643393 -4.48828125 128.3203125 C-14.06207943 134.28812061 -23.69545481 140.15194749 -33.37109375 145.953125 C-34.96715454 146.91025391 -34.96715454 146.91025391 -36.59545898 147.88671875 C-41.02812599 150.54113455 -45.46320382 153.19024231 -49.921875 155.80078125 C-57.24867311 160.10393847 -64.23627051 164.72368875 -71.09375 169.73828125 C-74.35928872 172.12431396 -77.7039621 174.38138327 -81.05859375 176.640625 C-86.15896105 180.15407414 -90.87368114 183.93297488 -95.55102539 187.97631836 C-99.44510302 191.33919967 -103.43054276 194.55020288 -107.49609375 197.703125 C-112.08732264 201.26992763 -116.58014619 204.92148275 -120.99609375 208.703125 C-127.16089489 213.97808328 -133.50405179 219.0009957 -139.9140625 223.97363281 C-141.38298128 225.11521845 -142.84604039 226.26433305 -144.30859375 227.4140625 C-145.11296875 228.04570312 -145.91734375 228.67734375 -146.74609375 229.328125 C-147.431875 229.86695313 -148.11765625 230.40578125 -148.82421875 230.9609375 C-154.05476076 234.84718133 -161.29188387 233.73775631 -167.49609375 233.203125 C-177.35174978 230.36065817 -185.52951989 222.68062817 -190.62109375 213.96484375 C-193.00440839 209.16629507 -193.1873829 204.44604831 -192.49609375 199.203125 C-189.37198518 191.59378171 -183.43828205 187.61411461 -176.5078125 183.5859375 C-175.93646072 183.25231705 -175.36510895 182.91869659 -174.77644348 182.57496643 C-172.9143568 181.48886291 -171.04903409 180.40845647 -169.18359375 179.328125 C-167.87739028 178.56783153 -166.57140332 177.807166 -165.265625 177.04614258 C-162.61363427 175.50123837 -159.9604061 173.95849322 -157.30615234 172.41748047 C-153.86145215 170.41682594 -150.42199569 168.40733106 -146.984375 166.39453125 C-126.87122495 154.62058521 -106.61306576 143.12093997 -86.26806641 131.75292969 C-82.00792215 129.37109106 -77.74940933 126.98630813 -73.50146484 124.58276367 C-69.82605191 122.50423158 -66.13576149 120.45702891 -62.4296875 118.43359375 C-35.48664174 103.61229534 -10.14038146 85.9603742 14.90136719 68.15844727 C17.87197825 66.04780819 20.84682416 63.96667058 23.90234375 61.98046875 C26.62148035 60.12280035 27.5075187 59.28286835 28.50390625 56.203125 C28.85015903 54.20532118 29.18473707 52.2054342 29.50390625 50.203125 C-3.50885055 48.95866506 -37.43467261 53.801806 -69.4296875 61.73828125 C-74.07354069 62.87964104 -78.73406224 63.93123351 -83.40625 64.94921875 C-84.11771179 65.10431412 -84.82917358 65.25940948 -85.56219482 65.41920471 C-86.29045471 65.5779155 -87.0187146 65.73662628 -87.76904297 65.90014648 C-102.77797438 69.17125092 -117.71940158 72.66030873 -132.62109375 76.390625 C-133.43905426 76.59472992 -134.25701477 76.79883484 -135.09976196 77.00912476 C-186.5824498 89.88255703 -235.68439671 108.29303918 -283.49609375 131.203125 C-284.41422852 131.64221191 -285.33236328 132.08129883 -286.27832031 132.53369141 C-299.12772418 138.71713529 -311.5228019 145.61767919 -323.88671875 152.71484375 C-326.19493973 154.03135901 -328.51228335 155.32746673 -330.83984375 156.609375 C-340.54935018 161.95968158 -349.93947219 167.74662481 -359.25341797 173.75830078 C-361.30845178 175.08223831 -363.37204132 176.39163952 -365.4375 177.69921875 C-375.43196948 184.10522398 -384.47640348 191.5025115 -393.49609375 199.203125 C-394.48706055 200.04544678 -394.48706055 200.04544678 -395.49804688 200.90478516 C-403.8051133 207.97909623 -411.90248948 215.25571367 -419.87695312 222.70166016 C-421.55711197 224.25970854 -423.25112994 225.80136766 -424.94921875 227.33984375 C-443.66251603 244.05990656 -443.66251603 244.05990656 -453.87109375 266.203125 C-453.39685731 269.99701652 -452.37811773 270.76662546 -449.49609375 273.203125 C-440.03719886 278.10305048 -429.6155236 279.83391463 -419.24609375 281.703125 C-417.62996345 282.00397721 -416.01408049 282.30616089 -414.3984375 282.60961914 C-411.20327355 283.2091629 -408.00725736 283.80378201 -404.81054688 284.39501953 C-399.35833854 285.40910415 -393.92788009 286.52313947 -388.49609375 287.640625 C-367.59876302 291.8738236 -346.57480309 295.49363176 -325.59033203 299.26464844 C-313.63693056 301.4133023 -301.68741058 303.58136741 -289.74475098 305.78900146 C-287.69865572 306.16582021 -285.65162246 306.53753667 -283.60449219 306.90869141 C-248.98203228 313.23461224 -210.85909026 327.20193169 -189.59765625 356.890625 C-182.15296774 368.62500391 -174.70241921 381.91418962 -176.49609375 396.203125 C-178.46239 403.81280259 -182.14581263 410.30696133 -188.78369141 414.72607422 C-191.4849628 416.24157261 -194.21870791 417.64461058 -196.99609375 419.015625 C-198.01219727 419.52915527 -199.02830078 420.04268555 -200.07519531 420.57177734 C-203.20444274 422.13930658 -206.34659353 423.67674435 -209.49609375 425.203125 C-210.87571289 425.87529053 -210.87571289 425.87529053 -212.28320312 426.56103516 C-226.17576874 433.2655975 -240.4585382 438.77728008 -254.98388672 443.94946289 C-257.49338377 444.84521344 -259.99622016 445.75314978 -262.49658203 446.67358398 C-272.45198257 450.30758327 -282.45446741 453.24807457 -292.74609375 455.765625 C-293.90978485 456.05268814 -293.90978485 456.05268814 -295.09698486 456.34555054 C-313.31522461 460.81929872 -331.56965765 464.36993119 -350.25 466.21484375 C-351.51457031 466.34086723 -351.51457031 466.34086723 -352.8046875 466.46943665 C-356.94440547 466.87708453 -361.0839625 467.25924611 -365.22998047 467.59692383 C-373.856485 468.35474458 -380.95200093 469.63138328 -388.89672852 473.27734375 C-393.29714372 474.40916051 -396.83754354 474.01574033 -401.32142639 473.53164673 C-406.33829123 473.01249026 -411.3589869 472.93592847 -416.3984375 472.80859375 C-418.67572881 472.74269173 -420.95299042 472.67575713 -423.23022461 472.60791016 C-424.40648407 472.57304504 -425.58274353 472.53817993 -426.79464722 472.5022583 C-457.36100453 471.56456292 -487.58930892 469.46976507 -517.67626953 463.73608398 C-519.72777791 463.34834002 -521.78427943 462.98673611 -523.84326172 462.64086914 C-533.47795474 460.91667844 -542.35993818 458.04773509 -551.51416016 454.64233398 C-553.88571313 453.76018703 -556.26247406 452.89348034 -558.640625 452.02929688 C-579.46829245 444.41983549 -608.22574818 431.86190972 -618.72265625 410.734375 C-620.09014478 406.25895798 -620.09204217 401.82519008 -619.49609375 397.203125 C-617.49609375 394.015625 -617.49609375 394.015625 -615.49609375 392.203125 C-612.07585173 393.34320567 -611.69695894 394.01364684 -609.74609375 396.890625 C-596.23273119 415.38086012 -569.73481186 419.54656761 -548.49609375 423.203125 C-547.09367935 423.45599525 -547.09367935 423.45599525 -545.66293335 423.713974 C-537.51616512 425.09340367 -529.62435679 425.50905978 -521.37109375 425.50390625 C-520.03229575 425.50901164 -518.69349964 425.51463568 -517.35470581 425.52073669 C-513.80162124 425.53298061 -510.24872977 425.52995564 -506.69564056 425.52098083 C-504.48200814 425.5155907 -502.26838631 425.51318663 -500.05474854 425.5111084 C-467.75698723 425.46390721 -435.01609448 425.19165692 -403.25146484 418.74902344 C-400.27346907 418.15901825 -397.28850082 417.63350871 -394.296875 417.1171875 C-381.23930386 414.83893367 -368.2952763 412.13330685 -355.37109375 409.203125 C-354.65222992 409.04162964 -353.93336609 408.88013428 -353.19271851 408.71374512 C-343.77606188 406.5896365 -334.50942294 404.1317819 -325.26855469 401.33935547 C-321.81213285 400.29831307 -318.3468812 399.30218471 -314.87109375 398.328125 C-286.25677518 390.52726557 -286.25677518 390.52726557 -258.99609375 379.078125 C-258.35414063 378.75336182 -257.7121875 378.42859863 -257.05078125 378.09399414 C-253.57387723 376.23749018 -253.57387723 376.23749018 -251.58984375 372.9609375 C-251.55890625 372.38085938 -251.52796875 371.80078125 -251.49609375 371.203125 C-254.49153312 370.18772182 -257.49139361 369.19056524 -260.49609375 368.203125 C-261.35847656 367.91308594 -262.22085937 367.62304688 -263.109375 367.32421875 C-272.57970783 364.26141828 -282.23821579 362.04063645 -291.921875 359.765625 C-297.25330634 358.50935653 -302.56763844 357.19191426 -307.87969971 355.85632324 C-313.70533078 354.39442698 -319.53903815 352.96691895 -325.375 351.546875 C-326.32512466 351.31548828 -327.27524933 351.08410156 -328.25416565 350.84570312 C-332.17497114 349.89105579 -336.09587749 348.93683333 -340.01733398 347.98486328 C-351.54704567 345.1848587 -363.04996455 342.3288356 -374.49609375 339.203125 C-375.43928467 338.94756836 -376.38247559 338.69201172 -377.35424805 338.42871094 C-380.8529895 337.47952759 -384.34951194 336.52233528 -387.84594727 335.56469727 C-392.65032267 334.24974261 -397.4566717 332.94374867 -402.26953125 331.66015625 C-424.98854164 325.58565866 -444.17458732 318.62413206 -463.08984375 304.43359375 C-466.50688625 301.88205215 -470.01044624 299.5807987 -473.63647461 297.34057617 C-489.12869092 287.66900966 -497.62372902 271.01095844 -501.828125 253.55078125 C-504.50656884 238.40184988 -503.86522198 223.79681474 -496.49609375 210.203125 C-496.18575195 209.60322754 -495.87541016 209.00333008 -495.55566406 208.38525391 C-491.37250028 200.30675871 -486.46588327 193.08607544 -480.49609375 186.203125 C-479.83222656 185.39488281 -479.16835938 184.58664062 -478.484375 183.75390625 C-472.76983492 177.02532579 -466.26795673 171.81275207 -459.25292969 166.53369141 C-457.62434958 165.30026151 -456.01627879 164.03987805 -454.41015625 162.77734375 C-405.31816189 124.22309111 -349.43698117 96.48318487 -291.84558105 73.15686035 C-289.01586484 72.00818405 -286.19033238 70.84949367 -283.36506653 69.68992615 C-257.32806466 59.01509339 -230.86127825 49.10273197 -203.92138672 40.93847656 C-201.45474343 40.19058754 -198.99292937 39.42811523 -196.53125 38.6640625 C-186.72231765 35.64459716 -176.85487524 32.93052525 -166.91333008 30.38256836 C-161.87480215 29.09090915 -156.85831203 27.75454258 -151.86108398 26.31152344 C-139.21228869 22.67296891 -126.36621064 19.93337631 -113.49609375 17.203125 C-112.74966614 17.04438904 -112.00323853 16.88565308 -111.23419189 16.72210693 C-90.72934722 12.36623781 -70.25010549 8.20437391 -49.49609375 5.203125 C-47.04425129 4.83997569 -44.59242934 4.47668785 -42.140625 4.11328125 C-39.63428584 3.74622457 -37.12777805 3.38031726 -34.62109375 3.015625 C-33.47358643 2.84836914 -32.3260791 2.68111328 -31.14379883 2.50878906 C-30.04575928 2.35249023 -28.94771973 2.19619141 -27.81640625 2.03515625 C-26.38192139 1.82983276 -26.38192139 1.82983276 -24.91845703 1.62036133 C-16.6057483 0.60692009 -8.37365292 0.03998983 0 0 Z " fill="#A020F0" transform="translate(630.49609375,162.796875)"/>
<path d="M0 0 C4.78468049 2.70472848 8.85924716 6.01721828 11.86328125 10.6484375 C12.90248756 16.23417142 13.68591493 21.96330099 10.61328125 27.0234375 C7.39804553 30.90513665 3.09317835 32.9443692 -1.265625 35.33984375 C-11.48300703 41.38976521 -20.37762348 49.7425033 -29.32421875 57.4921875 C-32.27663524 60.04231167 -35.28780194 62.51110121 -38.32421875 64.9609375 C-43.0715006 68.81461335 -47.59477918 72.87277609 -52.09765625 77.0078125 C-56.53683341 81.07819648 -61.07872418 85.01994209 -65.6796875 88.90625 C-73.67183212 95.66847891 -81.36247411 102.6901319 -88.96875 109.8828125 C-91.79926938 112.55747735 -94.6644542 115.18478449 -97.57421875 117.7734375 C-108.3004931 127.36398868 -118.7598744 137.26705864 -128.81933594 147.55541992 C-131.50743894 150.28737792 -134.24090316 152.88285699 -137.16015625 155.3671875 C-142.99420635 160.41174032 -148.37732736 165.92767937 -153.81860352 171.38745117 C-155.6950135 173.26922024 -157.57670844 175.14558488 -159.45898438 177.02148438 C-164.90913281 182.46901601 -170.29779955 187.90603036 -175.29174805 193.78149414 C-177.68128859 196.54319402 -180.37001077 198.98634935 -183.03515625 201.4765625 C-184.77264428 203.49374373 -185.09442977 204.78141869 -185.63671875 207.3359375 C-158.77047129 192.47649029 -132.0721749 177.43363573 -106.07421875 161.0859375 C-93.07449927 152.91956803 -79.88898297 145.08436113 -66.63671875 137.3359375 C-65.56164062 136.706875 -64.4865625 136.0778125 -63.37890625 135.4296875 C-37.57147582 120.35965513 -11.3624219 106.06943975 15.07478333 92.14093018 C18.52784732 90.31814223 21.9621365 88.46722465 25.375 86.5703125 C53.432435 71.08323361 92.89848625 49.95685818 125.23828125 50.2734375 C126.55699219 50.28020508 126.55699219 50.28020508 127.90234375 50.28710938 C130.05601928 50.29881413 132.20965942 50.31674681 134.36328125 50.3359375 C134.36328125 50.9959375 134.36328125 51.6559375 134.36328125 52.3359375 C123.86924468 57.8390083 113.36434098 63.31966335 102.81640625 68.71875 C82.55455074 79.08105331 82.55455074 79.08105331 62.51318359 89.86157227 C55.50836361 93.72728354 48.45076086 97.48853505 41.38220215 101.23577881 C30.85629858 106.81857305 20.40183453 112.49788079 10.05273438 118.40429688 C3.00498897 122.42382977 -4.09197192 126.34810611 -11.20593262 130.24859619 C-23.84157226 137.17982864 -36.33589096 144.3219382 -48.75244141 151.64013672 C-52.56731839 153.88308031 -56.39411872 156.1052344 -60.22070312 158.328125 C-107.50292546 185.81705265 -153.46056751 214.6401206 -196.63671875 248.3359375 C-197.49257568 249.00254395 -197.49257568 249.00254395 -198.36572266 249.68261719 C-210.10243828 258.83002195 -221.60377336 268.23773198 -232.93212891 277.88574219 C-234.65791204 279.35396789 -236.38746147 280.81767283 -238.1171875 282.28125 C-245.10747345 288.21410834 -251.92551525 294.29626653 -258.6328125 300.546875 C-261.20932688 302.94729375 -263.82058611 305.30504881 -266.44921875 307.6484375 C-279.88892462 319.72577004 -292.7896416 332.32768368 -305.54907227 345.11791992 C-308.2236221 347.79789031 -310.90355851 350.47239234 -313.58398438 353.14648438 C-315.31151908 354.87467902 -317.03874401 356.60318339 -318.765625 358.33203125 C-319.94856895 359.51193886 -319.94856895 359.51193886 -321.15541077 360.71568298 C-325.31294836 364.89072552 -329.30342728 369.15018392 -333.14884949 373.61448669 C-334.87814269 375.61526274 -336.67247487 377.54175506 -338.50390625 379.44921875 C-339.1572998 380.1342749 -339.81069336 380.81933105 -340.48388672 381.52514648 C-341.15307129 382.22583252 -341.82225586 382.92651855 -342.51171875 383.6484375 C-347.79479218 389.2114449 -352.7885963 394.84355044 -357.55859375 400.8515625 C-360.5126723 404.38313009 -363.76502602 407.56533725 -367.08203125 410.75390625 C-369.01110099 412.70362353 -370.7848895 414.64752988 -372.5625 416.7265625 C-377.73717265 422.68719958 -383.25024447 428.32163545 -388.78588867 433.94506836 C-390.0562206 435.24198373 -391.31934196 436.54600337 -392.57495117 437.85717773 C-400.89376035 446.5376269 -408.40887419 452.80322179 -419.63671875 457.3359375 C-420.53922363 457.70936279 -421.44172852 458.08278809 -422.37158203 458.4675293 C-427.07167294 460.32057999 -430.70621041 460.94955841 -435.63671875 459.3359375 C-442.19987737 455.04313594 -446.57973254 448.9252542 -450.63671875 442.3359375 C-450.99362793 441.75714844 -451.35053711 441.17835938 -451.71826172 440.58203125 C-460.32756499 426.36796397 -460.32756499 426.36796397 -459.62890625 419.87890625 C-457.04549021 413.25763129 -451.52851464 408.31629742 -446.63671875 403.3359375 C-445.35039551 402.01650146 -445.35039551 402.01650146 -444.03808594 400.67041016 C-427.14409416 383.37760208 -427.14409416 383.37760208 -418.51806641 375.9699707 C-415.24100473 373.12369848 -412.10334352 370.12941007 -408.94921875 367.1484375 C-407.540743 365.82251458 -406.13188397 364.49699869 -404.72265625 363.171875 C-403.6857666 362.19686035 -403.6857666 362.19686035 -402.62792969 361.20214844 C-399.79116181 358.54346113 -396.93511837 355.90610704 -394.07421875 353.2734375 C-389.38834338 348.96045119 -384.72581357 344.62337094 -380.07421875 340.2734375 C-375.57233154 336.06498966 -371.05857789 331.87077272 -366.51171875 327.7109375 C-365.62377121 326.89760452 -364.73582367 326.08427155 -363.82096863 325.24629211 C-361.86416314 323.45506629 -359.90112425 321.67184496 -357.93197632 319.894104 C-347.41711146 310.32360977 -337.40894934 300.25340653 -327.36328125 290.1953125 C-325.42602018 288.25827522 -323.48816034 286.32183726 -321.55038452 284.38531494 C-317.51275195 280.34948815 -313.47720191 276.31158807 -309.44287109 272.27246094 C-304.79865622 267.622788 -300.1508254 262.9767529 -295.50113738 258.33255363 C-291.4794148 254.31538578 -287.45966487 250.29625183 -283.44152391 246.27550149 C-281.05428458 243.8867147 -278.66640224 241.49858117 -276.27672195 239.11223602 C-273.61645513 236.45452148 -270.95943613 233.79360074 -268.30322266 231.13183594 C-267.13731094 229.96896057 -267.13731094 229.96896057 -265.94784546 228.78259277 C-261.87000376 224.6890269 -257.95292889 220.51557993 -254.19743061 216.12348652 C-251.49370059 213.02679067 -248.58253205 210.13903584 -245.671875 207.23828125 C-244.71637001 206.28134117 -244.71637001 206.28134117 -243.74156189 205.30506897 C-242.40583945 203.96867176 -241.0688764 202.63351345 -239.73071289 201.29956055 C-237.70408895 199.27829482 -235.68286328 197.25174176 -233.66210938 195.22460938 C-228.04245521 189.60235757 -222.45389658 184.01532165 -216.38842773 178.86938477 C-212.96466065 175.87221668 -209.82136937 172.58278832 -206.63671875 169.3359375 C-202.8466046 165.47179768 -199.07307049 161.65846645 -194.94921875 158.1484375 C-188.84888172 152.89404565 -183.29222614 147.05858206 -177.63671875 141.3359375 C-164.82493568 128.3720643 -164.82493568 128.3720643 -158.64794922 123.11132812 C-154.1445523 119.13600615 -149.94666408 114.83043934 -145.69921875 110.5859375 C-144.73252066 109.63141036 -143.76572436 108.67698267 -142.79882812 107.72265625 C-141.89068359 106.81644531 -140.98253906 105.91023438 -140.046875 104.9765625 C-139.22324463 104.15704102 -138.39961426 103.33751953 -137.55102539 102.49316406 C-135.43890483 100.39774616 -135.43890483 100.39774616 -134.63671875 97.3359375 C-143.61367463 100.73445781 -151.63276302 105.07958649 -159.76171875 110.1484375 C-160.98121201 110.90010783 -162.20119299 111.65098739 -163.42163086 112.40112305 C-165.92863386 113.94384216 -168.43258271 115.49134208 -170.93408203 117.04296875 C-174.47191816 119.2364017 -178.01960328 121.41342291 -181.5703125 123.5859375 C-193.5100694 130.89814517 -205.40114256 138.28271812 -217.21484375 145.796875 C-219.86363255 147.48013756 -222.51571941 149.15813336 -225.16796875 150.8359375 C-234.96882208 157.04334028 -244.71330761 163.31502231 -254.33691406 169.79345703 C-257.14781613 171.67873084 -259.96633252 173.55237247 -262.78515625 175.42578125 C-274.68113544 183.33408385 -286.55756159 191.26354995 -298.30688477 199.3894043 C-311.08246806 208.17410531 -320.59218769 213.91708942 -336.63671875 212.3359375 C-344.07207372 210.22138549 -349.38073788 205.70808664 -353.63671875 199.3359375 C-357.1356851 192.90033867 -357.47685487 186.62476305 -355.67578125 179.57421875 C-355.22136738 178.25964643 -354.74905279 176.9511646 -354.26171875 175.6484375 C-353.99915283 174.93075195 -353.73658691 174.21306641 -353.46606445 173.47363281 C-347.90845564 158.75169815 -341.17975451 144.8795388 -331.63671875 132.3359375 C-330.67564885 131.04142834 -329.71609485 129.74579279 -328.7578125 128.44921875 C-325.74643123 124.38926181 -322.69593009 120.3599136 -319.63671875 116.3359375 C-319.20746094 115.76875 -318.77820313 115.2015625 -318.3359375 114.6171875 C-311.78978423 105.9721089 -304.99364616 97.54569129 -298.125 89.15625 C-296.82262496 87.56331885 -295.52605843 85.9656423 -294.23046875 84.3671875 C-289.16698233 78.1295593 -283.97272155 72.01351708 -278.7265625 65.9296875 C-276.72525316 63.60809345 -274.73837615 61.27558863 -272.765625 58.9296875 C-265.9458206 50.84402883 -258.80841189 43.10947957 -251.5234375 35.44140625 C-248.12250476 31.860996 -244.77887624 28.23246572 -241.44921875 24.5859375 C-237.2330877 19.98869135 -232.91247104 15.50678455 -228.51171875 11.0859375 C-227.95460205 10.52422852 -227.39748535 9.96251953 -226.82348633 9.38378906 C-221.88424032 4.46374996 -221.88424032 4.46374996 -217.9296875 4.05859375 C-206.72623376 5.00218238 -193.49943425 16.59124071 -186.51171875 24.7734375 C-182.68651883 30.00121072 -183.08928972 35.0119066 -183.63671875 41.3359375 C-187.19623744 50.55832682 -195.89575487 58.12049914 -203.34790039 64.37768555 C-212.0766769 71.84579396 -220.30933619 79.84458151 -228.41137695 87.98022461 C-229.96256602 89.53683139 -231.51911267 91.08793921 -233.07617188 92.63867188 C-238.47361377 98.0322063 -243.69844316 103.51458963 -248.63671875 109.3359375 C-249.5856763 110.41934004 -250.53614543 111.50142084 -251.48828125 112.58203125 C-257.14584329 119.06924823 -262.57712574 125.69901092 -267.82421875 132.5234375 C-268.38898926 133.25425537 -268.95375977 133.98507324 -269.53564453 134.73803711 C-270.05755371 135.42389893 -270.57946289 136.10976074 -271.1171875 136.81640625 C-271.81171021 137.72749146 -271.81171021 137.72749146 -272.52026367 138.65698242 C-273.82228879 140.45600888 -273.82228879 140.45600888 -274.63671875 143.3359375 C-260.69031855 138.16017718 -248.33482955 130.315081 -235.758255 122.50448608 C-230.56671293 119.2816489 -225.32711402 116.14480686 -220.07421875 113.0234375 C-211.32582182 107.79578 -202.70017757 102.38690615 -194.10693359 96.90869141 C-191.56398785 95.28963067 -189.01679642 93.67742608 -186.46875 92.06640625 C-177.57878348 86.4372853 -168.73199373 80.75289719 -159.94946289 74.95727539 C-148.31692399 67.28883553 -136.56261304 59.94824363 -124.49414062 52.98681641 C-121.45727434 51.23226327 -118.42955624 49.46255842 -115.40234375 47.69140625 C-102.35939419 40.08433131 -89.18729854 32.76711403 -75.859375 25.671875 C-71.92456292 23.57468007 -68.01610121 21.44107828 -64.1328125 19.25 C-54.39243932 13.76830816 -44.51099736 8.66096262 -34.36538696 3.97415161 C-33.10731692 3.39099009 -31.85227647 2.80123862 -30.60067749 2.20431519 C-19.99339113 -2.83130781 -11.03022388 -4.96096193 0 0 Z " fill="#A020F0" transform="translate(874.63671875,336.6640625)"/>
</svg>